<svg width="116" height="116" viewBox="0 0 116 116" fill="none" xmlns="http://www.w3.org/2000/svg">
<path d="M112.298 106.004L64.3348 57.9549L112.298 9.86012C114.038 8.12012 114.038 5.31071 112.298 3.57071C110.558 1.83071 107.749 1.83071 106.009 3.57071L58.0001 51.6202L9.95062 3.48023C8.21062 1.69488 5.35597 1.69488 3.61597 3.43492C1.87597 5.17497 1.87597 7.98433 3.61597 9.72433L51.7107 57.9096L3.61597 106.14C1.87597 107.88 1.87597 110.689 3.61597 112.429C4.50863 113.277 5.62335 113.725 6.78335 113.725C7.94335 113.725 9.058 113.281 9.95074 112.429L58.0003 64.2442L105.964 112.294C106.857 113.186 107.971 113.59 109.131 113.59C110.291 113.59 111.406 113.146 112.299 112.294C114.039 110.604 114.039 107.744 112.299 106.004L112.298 106.004Z" fill="#F4F0E0"/>
</svg>
