<svg width="312" height="64" viewBox="0 0 312 64" fill="none" xmlns="http://www.w3.org/2000/svg">
<path d="M117.764 19.9609C117.764 21.1914 118.265 22.513 119.268 23.9258C120.27 25.3158 121.478 26.6715 122.891 27.9932C124.326 29.3148 125.75 30.682 127.163 32.0947C128.599 33.4847 129.818 35.0342 130.82 36.7432C131.823 38.4521 132.324 40.1611 132.324 41.8701C132.324 43.1006 132.085 44.3197 131.606 45.5273C131.128 46.735 130.422 47.863 129.487 48.9111C128.576 49.9593 127.334 50.8138 125.762 51.4746C124.212 52.1126 122.458 52.4316 120.498 52.4316C117.878 52.4316 115.451 52.0671 113.218 51.3379V41.46C115.656 48.0908 118.687 51.4062 122.31 51.4062C123.654 51.4062 124.782 50.9619 125.693 50.0732C126.605 49.1618 127.061 47.8288 127.061 46.0742C127.061 44.7298 126.593 43.3512 125.659 41.9385C124.725 40.5029 123.586 39.1357 122.241 37.8369C120.897 36.5381 119.552 35.2165 118.208 33.8721C116.886 32.5277 115.758 31.0352 114.824 29.3945C113.89 27.7539 113.423 26.1019 113.423 24.4385C113.423 21.18 114.448 18.7305 116.499 17.0898C118.55 15.4492 120.977 14.6289 123.779 14.6289C126.149 14.6289 128.485 15.0049 130.786 15.7568V24.165C129.146 21.1117 127.699 18.9355 126.445 17.6367C125.215 16.3379 123.859 15.6885 122.378 15.6885C120.965 15.6885 119.837 16.0758 118.994 16.8506C118.174 17.6253 117.764 18.6621 117.764 19.9609Z" fill="#FFCE67"/>
<path d="M135.604 33.7695C135.604 31.2858 135.9 28.9616 136.493 26.7969C137.085 24.6322 137.849 22.832 138.783 21.3965C139.717 19.9382 140.754 18.6849 141.893 17.6367C143.055 16.5885 144.195 15.8252 145.311 15.3467C146.45 14.8682 147.51 14.6289 148.49 14.6289C149.447 14.6289 150.393 14.7656 151.327 15.0391C152.261 15.2897 153.229 15.7796 154.232 16.5088C155.235 17.238 156.123 18.1608 156.898 19.2773C157.673 20.3939 158.322 21.8978 158.846 23.7891C159.393 25.6576 159.712 27.7881 159.803 30.1807H142.03C142.098 34.2822 142.805 37.9508 144.149 41.1865C145.926 45.6071 149.048 47.8174 153.514 47.8174C156.021 47.8174 157.958 46.9743 159.325 45.2881C158.983 47.3389 157.992 49.0706 156.351 50.4834C154.733 51.8734 152.5 52.5684 149.652 52.5684C147.738 52.5684 145.938 52.181 144.252 51.4062C142.588 50.6315 141.107 49.4922 139.808 47.9883C138.509 46.4844 137.484 44.5133 136.732 42.0752C135.98 39.637 135.604 36.8685 135.604 33.7695ZM142.03 28.9844V29.4287H152.694C152.398 20.1774 150.689 15.5518 147.567 15.5518C146.929 15.5518 146.302 15.7682 145.687 16.2012C145.095 16.6113 144.514 17.2835 143.944 18.2178C143.374 19.152 142.907 20.5534 142.543 22.4219C142.201 24.2676 142.03 26.4551 142.03 28.9844Z" fill="#FFCE67"/>
<path d="M189.026 63.0957H191.521V63.7793H178.225V63.0957H181.814V46.2109C180.834 48.2389 179.615 49.7884 178.156 50.8594C176.721 51.9076 175.206 52.4316 173.611 52.4316C170.717 52.4316 168.279 50.9619 166.296 48.0225C164.314 45.0602 163.322 40.8219 163.322 35.3076C163.322 31.8896 163.744 28.8021 164.587 26.0449C165.453 23.2878 166.57 21.0889 167.937 19.4482C169.304 17.7848 170.774 16.5202 172.346 15.6543C173.941 14.7884 175.525 14.3555 177.097 14.3555C178.669 14.3555 180.298 14.6973 181.985 15.3809C183.694 16.0645 185.197 16.9873 186.496 18.1494L189.026 14.2188V63.0957ZM171.867 43.8184C172.323 45.6185 172.973 46.9971 173.816 47.9541C174.682 48.8883 175.639 49.3555 176.687 49.3555C178.669 49.3555 180.378 47.8174 181.814 44.7412V18.0127C180.674 16.1442 179.034 15.21 176.892 15.21C174.864 15.21 173.292 16.3151 172.175 18.5254C171.081 20.7357 170.534 24.0397 170.534 28.4375C170.534 35.1367 170.979 40.2637 171.867 43.8184Z" fill="#FFCE67"/>
<path d="M212.847 18.833L211.378 16.2695L220.059 14.9365V47.8174L221.597 51.2695L212.847 52.5684V47.2021C211.845 48.82 210.592 50.096 209.088 51.0303C207.607 51.9645 206.091 52.4316 204.542 52.4316C201.785 52.4316 199.757 51.486 198.458 49.5947C197.182 47.7035 196.544 44.8779 196.544 41.1182V18.833L195.074 16.2695L203.756 14.9365V43.75C203.756 45.9603 204.052 47.5098 204.644 48.3984C205.26 49.2871 206.205 49.7314 207.481 49.7314C209.578 49.7314 211.366 48.5124 212.847 46.0742V18.833Z" fill="#FFCE67"/>
<path d="M232.021 0C233.16 0 234.117 0.421549 234.892 1.26465C235.69 2.08496 236.088 3.04199 236.088 4.13574C236.088 5.29785 235.701 6.27767 234.926 7.0752C234.151 7.87272 233.183 8.27148 232.021 8.27148C230.927 8.27148 229.982 7.87272 229.184 7.0752C228.409 6.27767 228.022 5.29785 228.022 4.13574C228.022 3.04199 228.421 2.08496 229.218 1.26465C230.016 0.421549 230.95 0 232.021 0ZM225.937 51.8848V51.2012H228.432V20.0293L226.552 16.2695L235.644 14.9365V51.2012H238.173V51.8848H225.937Z" fill="#FFCE67"/>
<path d="M252.049 52.2949C246.58 52.2949 243.846 49.082 243.846 42.6562V16.4062H240.633L251.058 7.99805V15.6201H258.338V16.4062H251.058V43.5449C251.058 47.0085 252.641 48.7402 255.809 48.7402C257.062 48.7402 257.996 48.4326 258.611 47.8174C257.426 50.8024 255.239 52.2949 252.049 52.2949Z" fill="#FFCE67"/>
<path d="M278.913 18.833L277.443 16.2695L286.125 14.9365V47.8174L287.663 51.2695L278.913 52.5684V47.2021C277.91 48.82 276.657 50.096 275.153 51.0303C273.672 51.9645 272.157 52.4316 270.607 52.4316C267.85 52.4316 265.822 51.486 264.523 49.5947C263.247 47.7035 262.609 44.8779 262.609 41.1182V18.833L261.139 16.2695L269.821 14.9365V43.75C269.821 45.9603 270.117 47.5098 270.71 48.3984C271.325 49.2871 272.27 49.7314 273.546 49.7314C275.643 49.7314 277.432 48.5124 278.913 46.0742V18.833Z" fill="#FFCE67"/>
<path d="M292.002 51.8848V51.2012H294.497V20.6104L292.412 16.543L301.709 15.21V21.7041C302.461 19.4482 303.464 17.7848 304.717 16.7139C305.97 15.6201 307.303 15.0732 308.716 15.0732C309.924 15.0732 310.858 15.2555 311.519 15.6201V26.1133C310.265 23.151 309.172 21.0775 308.238 19.8926C307.326 18.6849 306.415 18.0811 305.503 18.0811C304.82 18.0811 304.125 18.5482 303.418 19.4824C302.735 20.3939 302.165 21.6699 301.709 23.3105V51.2012H305.708V51.8848H292.002Z" fill="#FFCE67"/>
<path d="M33.192 22.0769C34.128 17.6129 32.4 15.4529 29.448 15.4529C24.408 15.4529 15.696 21.8609 10.728 34.5329L13.464 21.7169C14.256 17.9729 12.96 15.4529 10.656 15.4529C8.208 15.4529 4.608 18.3329 1.224 25.7489L0 28.4129L0.648 28.7729L1.944 25.8929C4.176 20.9969 7.056 17.8289 8.568 17.8289C9.432 17.8289 9.792 18.9089 9.288 21.2129L2.736 51.8849H7.056L9.432 40.7969C12.888 27.1889 22.176 18.1169 26.568 18.1169C28.44 18.1169 29.376 19.7729 28.584 23.5169L23.832 45.9809C23.04 49.7249 24.336 52.3169 26.64 52.3169C29.088 52.3169 32.688 49.4369 36.072 42.0209L37.368 39.2849L36.648 38.9969L35.424 41.8769C33.192 46.7729 30.24 49.9409 28.728 49.9409C27.864 49.9409 27.504 48.8609 28.008 46.4849L33.192 22.0769Z" fill="#FFCE67"/>
<path d="M50.8247 52.3169C69.9767 52.3169 77.8247 15.4529 58.6727 15.4529C38.9447 15.4529 31.0967 52.3169 50.8247 52.3169ZM53.2007 51.1649C39.2327 51.1649 42.2567 16.6049 56.2967 16.6049C70.2647 16.6049 67.1687 51.1649 53.2007 51.1649Z" fill="#FFCE67"/>
<path d="M104.914 22.0769C105.85 17.6129 104.122 15.4529 101.17 15.4529C96.1296 15.4529 87.4176 21.8609 82.4496 34.5329L85.1856 21.7169C85.9776 17.9729 84.6816 15.4529 82.3776 15.4529C79.9296 15.4529 76.3296 18.3329 72.9456 25.7489L71.7216 28.4129L72.3696 28.7729L73.6656 25.8929C75.8976 20.9969 78.7776 17.8289 80.2896 17.8289C81.1536 17.8289 81.5136 18.9089 81.0096 21.2129L74.4576 51.8849H78.7776L81.1536 40.7969C84.6096 27.1889 93.8976 18.1169 98.2896 18.1169C100.162 18.1169 101.098 19.7729 100.306 23.5169L95.5536 45.9809C94.7616 49.7249 96.0576 52.3169 98.3616 52.3169C100.81 52.3169 104.41 49.4369 107.794 42.0209L109.09 39.2849L108.37 38.9969L107.146 41.8769C104.914 46.7729 101.962 49.9409 100.45 49.9409C99.5856 49.9409 99.2256 48.8609 99.7296 46.4849L104.914 22.0769Z" fill="#FFCE67"/>
</svg>
