<svg width="32" height="32" viewBox="0 0 32 32" fill="none" xmlns="http://www.w3.org/2000/svg">
<g clip-path="url(#clip0_583_132)">
<path d="M16 0C7.1616 0 0 7.1616 0 16C0 24.8384 7.1616 32 16 32C24.8384 32 32 24.8384 32 16C32 7.1616 24.8384 0 16 0ZM23.7248 19.6096C23.0272 21.152 22.304 22.2976 21.5616 23.0528C20.8192 23.808 20.1408 24.1856 19.5392 24.1856C19.0208 24.1856 18.6368 23.9168 18.3936 23.3856C18.1504 22.8544 18.112 22.1824 18.2912 21.3696L20.4032 11.3856C20.5824 10.5856 20.5824 9.984 20.416 9.5808C20.2496 9.1776 19.9488 8.9792 19.5072 8.9792C19.008 8.9792 18.4064 9.2288 17.7024 9.7216C16.9984 10.2144 16.2816 10.8864 15.552 11.7376C14.8224 12.5888 14.1248 13.664 13.4528 14.9632C12.7808 16.2624 12.2624 17.632 11.8976 19.072L10.8352 23.9936H8.9152L11.84 10.368C12.0576 9.3568 11.9488 8.8512 11.5136 8.8512C11.1616 8.8512 10.7008 9.184 10.1376 9.856C9.5744 10.528 9.056 11.392 8.576 12.4416L8 13.7216L7.7056 13.5488L8.2496 12.3776C8.9472 10.8352 9.6704 9.6896 10.4192 8.9344C11.168 8.1792 11.8464 7.8016 12.448 7.8016C12.9664 7.8016 13.3504 8.064 13.5872 8.5824C13.824 9.1008 13.856 9.7728 13.6832 10.5792L12.48 16.2688C13.0112 14.9248 13.6448 13.696 14.3872 12.5888C15.1296 11.4816 15.8784 10.5856 16.64 9.9072C17.4016 9.2288 18.1376 8.7104 18.8608 8.3456C19.5776 7.9808 20.224 7.8016 20.8 7.8016C21.4848 7.8016 21.9904 8.0512 22.3104 8.5504C22.6304 9.0496 22.6816 9.7792 22.4768 10.7392L20.1664 21.5808C19.9552 22.6112 20.064 23.1296 20.4928 23.1296C20.8448 23.1296 21.312 22.7904 21.8944 22.112C22.4704 21.4336 22.9952 20.576 23.4624 19.5328L24.0064 18.2528L24.32 18.3936L23.744 19.5968L23.7248 19.6096Z" fill="#231F20"/>
</g>
<defs>
<clipPath id="clip0_583_132">
<rect width="32" height="32" fill="white"/>
</clipPath>
</defs>
</svg>
